<svg width="32" height="32" viewBox="0 0 32 32" xmlns="http://www.w3.org/2000/svg">
  <defs>
    <radialGradient id="bg" cx="70%" cy="20%" r="80%">
      <stop offset="0" stop-color="#6D28D9" stop-opacity="0.18" />
      <stop offset="1" stop-color="#6D28D9" stop-opacity="0" />
    </radialGradient>
    <linearGradient id="leaf" x1="0" y1="0" x2="1" y2="1">
      <stop offset="0" stop-color="#34D399" />
      <stop offset="1" stop-color="#10B981" />
    </linearGradient>
    <linearGradient id="fruit" x1="0" y1="0" x2="1" y2="1">
      <stop offset="0" stop-color="#EF4444" />
      <stop offset="1" stop-color="#F59E0B" />
    </linearGradient>
  </defs>
  <rect x="2" y="2" width="28" height="28" rx="8" fill="#ffffff" />
  <ellipse cx="22" cy="6" rx="12" ry="10" fill="url(#bg)" />
  <path d="M20 9c-2.5-1.2-5.5-.8-7.8 1.2-2.7 2.2-3.8 5.6-2.6 8.7 1.4 3.4 5.3 5.1 8.8 3.8 3.4-1.3 5.5-4.9 4.8-8.5-.1-.5-.3-1-.5-1.5-.3-.6-1.1-.8-1.7-.5-.7.3-1.4.8-2.3 1.5-1.6 1.1-3.1 1.6-4.5 1.7 2.1-1.7 3.6-3.6 4.8-5.9z" fill="url(#fruit)"/>
  <path d="M17 7c1.4-1.2 3.2-2 5.2-2-.4 1.7-1.6 3.2-3.2 4" fill="url(#leaf)"/>
</svg>

